<?xml version="1.0" standalone="no"?>
<!DOCTYPE svg PUBLIC "-//W3C//DTD SVG 20010904//EN"
 "http://www.w3.org/TR/2001/REC-SVG-20010904/DTD/svg10.dtd">
<svg version="1.0" xmlns="http://www.w3.org/2000/svg"
 width="32.000000pt" height="30.000000pt" viewBox="0 0 32.000000 30.000000"
 preserveAspectRatio="xMidYMid meet">

<g transform="translate(0.000000,30.000000) scale(0.100000,-0.100000)"
fill="#000000" stroke="none">
<path d="M80 220 c0 -5 20 -10 45 -10 25 0 45 5 45 10 0 6 -20 10 -45 10 -25
0 -45 -4 -45 -10z"/>
<path d="M195 220 c3 -5 22 -10 41 -10 21 0 33 4 29 10 -3 6 -22 10 -41 10
-21 0 -33 -4 -29 -10z"/>
<path d="M57 174 c-15 -15 -6 -24 23 -24 17 0 30 5 30 10 0 6 -4 10 -9 10 -5
0 -16 2 -23 5 -8 3 -17 2 -21 -1z"/>
<path d="M141 172 c-31 -10 -4 -22 50 -22 44 0 60 3 57 12 -4 12 -80 19 -107
10z"/>
<path d="M35 100 c8 -13 105 -13 105 0 0 6 -25 10 -56 10 -34 0 -53 -4 -49
-10z"/>
<path d="M170 100 c0 -5 11 -10 25 -10 14 0 25 5 25 10 0 6 -11 10 -25 10 -14
0 -25 -4 -25 -10z"/>
</g>
</svg>
