<svg width="149" height="29" viewBox="0 0 149 29" fill="none" xmlns="http://www.w3.org/2000/svg">
<g clip-path="url(#clip0_2_206)">
<path d="M18.6993 0H9.55438C8.33753 0 7.35107 0.986454 7.35107 2.20331V2.20619C7.35107 3.42304 8.33753 4.4095 9.55438 4.4095H18.6993C19.9161 4.4095 20.9026 3.42304 20.9026 2.20619V2.20331C20.9026 0.986454 19.9161 0 18.6993 0Z" fill="#4B32BF"/>
<path d="M17.1881 19.5212V19.5183C17.1881 18.3014 16.2017 17.315 14.9848 17.315H2.20332C0.986471 17.315 1.52588e-05 18.3014 1.52588e-05 19.5183V19.5212C1.52588e-05 20.738 0.986471 21.7245 2.20332 21.7245H14.9848C16.2017 21.7245 17.1881 20.738 17.1881 19.5212Z" fill="#4B32BF"/>
<path d="M36.5016 2.20619V2.20331C36.5016 0.986456 35.5152 0 34.2983 0L26.3532 0C25.1363 0 24.1499 0.986456 24.1499 2.20331V2.20619C24.1499 3.42304 25.1363 4.4095 26.3532 4.4095L34.2983 4.4095C35.5152 4.4095 36.5016 3.42304 36.5016 2.20619Z" fill="#4B32BF"/>
<path d="M12.2365 10.7945V10.7916C12.2365 9.57474 11.25 8.58829 10.0331 8.58829H5.85724C4.64039 8.58829 3.65394 9.57474 3.65394 10.7916V10.7945C3.65394 12.0113 4.64039 12.9978 5.85724 12.9978H10.0331C11.25 12.9978 12.2365 12.0113 12.2365 10.7945Z" fill="#4B32BF"/>
<path d="M29.1102 19.6394V19.3943C29.1102 18.2443 28.1779 17.3121 27.028 17.3121H22.3416C21.1917 17.3121 20.2595 18.2443 20.2595 19.3943V19.6394C20.2595 20.7894 21.1917 21.7216 22.3416 21.7216H27.028C28.1779 21.7216 29.1102 20.7894 29.1102 19.6394Z" fill="#4B32BF"/>
<path d="M32.8506 10.7916V10.7887C32.8506 9.57184 31.8641 8.58539 30.6473 8.58539L17.5197 8.58539C16.3029 8.58539 15.3164 9.57184 15.3164 10.7887V10.7916C15.3164 12.0084 16.3029 12.9949 17.5197 12.9949H30.6473C31.8641 12.9949 32.8506 12.0084 32.8506 10.7916Z" fill="#4B32BF"/>
<path d="M45.1015 0.810364H49.0784L57.1245 21.7216H52.9111L51.2788 17.2054H42.9155L41.2514 21.7216H37.0208L45.1015 0.810364ZM44.2132 13.7072H49.9782L47.1115 5.59765H47.0625L44.2103 13.7072H44.2132Z" fill="#231F20"/>
<path d="M62.9846 28.3113H58.9932V8.71518H63.0336V10.8233C63.1605 10.5176 63.4344 10.1687 63.8584 9.77646C64.2794 9.38713 64.8331 9.04683 65.5137 8.76132C66.1943 8.47581 66.973 8.3345 67.8497 8.3345C69.084 8.3345 70.1626 8.63443 71.0826 9.23717C72.0025 9.8399 72.712 10.6589 73.2138 11.7C73.7156 12.7411 73.9665 13.9149 73.9665 15.2242C73.9665 16.5335 73.7012 17.7101 73.1734 18.7483C72.6456 19.7894 71.9103 20.6084 70.9701 21.2025C70.0299 21.7995 68.9369 22.0965 67.6911 22.0965C66.7509 22.0965 65.9434 21.9264 65.2686 21.5889C64.5938 21.2515 64.066 20.8709 63.6853 20.4469C63.3047 20.0259 63.074 19.6913 62.9874 19.4491V28.3056L62.9846 28.3113ZM70.0184 15.227C70.0184 14.4974 69.8627 13.8572 69.5512 13.3035C69.2398 12.7498 68.8245 12.3172 68.3083 12.0057C67.792 11.6943 67.2152 11.5385 66.5808 11.5385C65.9146 11.5385 65.3148 11.6971 64.7755 12.0144C64.2362 12.3316 63.8122 12.7671 63.5008 13.3208C63.1893 13.8745 63.0336 14.5118 63.0336 15.2299C63.0336 15.948 63.1893 16.5854 63.5008 17.1391C63.8122 17.6928 64.2362 18.1254 64.7755 18.4368C65.3148 18.7483 65.9175 18.904 66.5808 18.904C67.2441 18.904 67.7891 18.7512 68.3083 18.4455C68.8245 18.1398 69.2398 17.7101 69.5512 17.1535C69.8627 16.5998 70.0184 15.9567 70.0184 15.2299V15.227Z" fill="#231F20"/>
<path d="M80.5533 28.3113H76.562V8.71518H80.6024V10.8233C80.7293 10.5176 81.0032 10.1687 81.4272 9.77646C81.8482 9.38713 82.4019 9.04683 83.0825 8.76132C83.7631 8.47581 84.5418 8.3345 85.4185 8.3345C86.6528 8.3345 87.7314 8.63443 88.6514 9.23717C89.5713 9.8399 90.2808 10.6589 90.7826 11.7C91.2844 12.7411 91.5353 13.9149 91.5353 15.2242C91.5353 16.5335 91.2699 17.7101 90.7422 18.7483C90.2144 19.7894 89.479 20.6084 88.5389 21.2025C87.5987 21.7995 86.5057 22.0965 85.2599 22.0965C84.3197 22.0965 83.5122 21.9264 82.8374 21.5889C82.1626 21.2515 81.6348 20.8709 81.2541 20.4469C80.8735 20.0259 80.6427 19.6913 80.5562 19.4491V28.3056L80.5533 28.3113ZM87.5843 15.227C87.5843 14.4974 87.4286 13.8572 87.1171 13.3035C86.8056 12.7498 86.3904 12.3172 85.8741 12.0057C85.3579 11.6943 84.7811 11.5385 84.1467 11.5385C83.4805 11.5385 82.8806 11.6971 82.3414 12.0144C81.8021 12.3316 81.3781 12.7671 81.0667 13.3208C80.7552 13.8745 80.5995 14.5118 80.5995 15.2299C80.5995 15.948 80.7552 16.5854 81.0667 17.1391C81.3781 17.6928 81.8021 18.1254 82.3414 18.4368C82.8806 18.7483 83.4805 18.904 84.1467 18.904C84.8129 18.904 85.355 18.7512 85.8741 18.4455C86.3904 18.1398 86.8056 17.7101 87.1171 17.1535C87.4286 16.5998 87.5843 15.9567 87.5843 15.2299V15.227Z" fill="#231F20"/>
<path d="M100.827 18.9011C101.514 18.9011 102.073 18.7858 102.506 18.5522C102.938 18.3215 103.224 18.1456 103.362 18.0302L105.231 20.8016C105.084 20.917 104.81 21.0814 104.406 21.2919C104.005 21.5024 103.495 21.6899 102.878 21.8543C102.26 22.0186 101.554 22.0994 100.764 22.0994C99.391 22.0994 98.1596 21.8225 97.0723 21.2688C95.9851 20.7151 95.1257 19.922 94.497 18.8925C93.8683 17.8629 93.554 16.6344 93.554 15.2097C93.554 13.7851 93.8683 12.5421 94.497 11.5183C95.1257 10.4945 95.9822 9.70724 97.0723 9.1593C98.1596 8.61136 99.391 8.3345 100.764 8.3345C101.545 8.3345 102.24 8.41814 102.846 8.58829C103.454 8.75844 103.962 8.94878 104.374 9.16507C104.787 9.38136 105.072 9.55728 105.231 9.69571L103.313 12.4844C103.238 12.4008 103.097 12.2826 102.886 12.1355C102.676 11.9884 102.399 11.85 102.056 11.7231C101.713 11.5962 101.303 11.5328 100.827 11.5328C100.248 11.5328 99.6938 11.6856 99.1718 11.9913C98.6498 12.297 98.223 12.7267 97.8971 13.2746C97.5684 13.8226 97.4069 14.4686 97.4069 15.2069C97.4069 15.9451 97.5712 16.594 97.8971 17.1477C98.223 17.7014 98.6498 18.134 99.1718 18.4397C99.6938 18.7454 100.248 18.8983 100.827 18.8983V18.9011Z" fill="#231F20"/>
<path d="M110.477 16.1153C110.508 16.7065 110.667 17.2342 110.953 17.6986C111.238 18.1629 111.653 18.5291 112.196 18.7916C112.741 19.0569 113.398 19.1866 114.168 19.1866C114.843 19.1866 115.443 19.103 115.965 18.9329C116.487 18.7656 116.931 18.558 117.294 18.3157C117.658 18.0735 117.926 17.8312 118.093 17.5861L119.772 20.0403C119.466 20.421 119.068 20.767 118.583 21.0785C118.099 21.39 117.476 21.638 116.723 21.8225C115.968 22.0071 115.025 22.0994 113.897 22.0994C112.472 22.0994 111.221 21.8197 110.142 21.2602C109.064 20.7007 108.222 19.8932 107.616 18.8377C107.007 17.7822 106.705 16.5248 106.705 15.0684C106.705 13.8024 106.976 12.6575 107.521 11.6395C108.066 10.6214 108.85 9.81395 109.88 9.22275C110.909 8.63155 112.147 8.3345 113.594 8.3345C114.955 8.3345 116.138 8.59694 117.136 9.11893C118.134 9.64091 118.906 10.4051 119.457 11.4087C120.005 12.4123 120.282 13.638 120.282 15.0828C120.282 15.1665 120.282 15.3424 120.273 15.6048C120.268 15.8702 120.256 16.0374 120.233 16.1124H110.474L110.477 16.1153ZM116.51 13.6265C116.498 13.2891 116.397 12.9257 116.201 12.5335C116.005 12.1441 115.699 11.8096 115.281 11.5356C114.863 11.2617 114.318 11.1232 113.64 11.1232C112.963 11.1232 112.392 11.2588 111.953 11.527C111.515 11.7952 111.186 12.1211 110.97 12.5017C110.754 12.8824 110.624 13.2573 110.581 13.6265H116.504H116.51Z" fill="#231F20"/>
<path d="M131.29 8.33737C132.178 8.33737 133.043 8.51906 133.888 8.88243C134.733 9.2458 135.428 9.82547 135.97 10.6157C136.516 11.4087 136.787 12.4441 136.787 13.7216V21.7216H132.746V14.4195C132.746 13.3525 132.495 12.5594 131.994 12.0432C131.492 11.527 130.834 11.2674 130.021 11.2674C129.493 11.2674 128.989 11.4116 128.507 11.7029C128.025 11.9942 127.636 12.395 127.336 12.9055C127.036 13.4188 126.883 14.0014 126.883 14.656V21.7216H122.86V8.71516H126.883V10.7916C126.999 10.434 127.264 10.0619 127.676 9.68416C128.089 9.30348 128.611 8.98337 129.245 8.7267C129.88 8.46715 130.56 8.33737 131.29 8.33737Z" fill="#231F20"/>
<path d="M138.8 8.71516H141.144V3.37704H145.136V8.71516H148.21V12.0576H145.136V16.7613C145.136 17.3842 145.236 17.8687 145.435 18.2119C145.637 18.5551 145.952 18.7281 146.387 18.7281C146.713 18.7281 146.984 18.6618 147.195 18.5291C147.405 18.3964 147.532 18.3042 147.575 18.2522L149 21.1362C148.937 21.1996 148.732 21.3092 148.389 21.4678C148.045 21.6264 147.607 21.7706 147.074 21.9033C146.54 22.0359 145.94 22.1023 145.277 22.1023C144.083 22.1023 143.097 21.7562 142.315 21.0641C141.534 20.3719 141.144 19.2991 141.144 17.8398V12.0576H138.8V8.71516Z" fill="#231F20"/>
</g>
<defs>
<clipPath id="clip0_2_206">
<rect width="149" height="28.3113" fill="white"/>
</clipPath>
</defs>
</svg>
