<svg width="14" height="16" viewBox="0 0 14 16" fill="none" xmlns="http://www.w3.org/2000/svg">
<path d="M6.075 6.61562C5.893 6.7373 5.73674 6.89364 5.61516 7.0757C5.49357 7.25777 5.40903 7.462 5.36638 7.67674C5.28023 8.11041 5.36989 8.56055 5.61562 8.92813C5.86136 9.2957 6.24306 9.5506 6.67674 9.63675C7.11041 9.7229 7.56055 9.63324 7.92812 9.3875C8.2957 9.14176 8.5506 8.76007 8.63675 8.32639C8.7229 7.89271 8.63324 7.44257 8.3875 7.075C8.14176 6.70743 7.76007 6.45253 7.32639 6.36638C6.89271 6.28023 6.44257 6.36989 6.075 6.61562ZM10.5219 4.47813C10.3594 4.31563 10.1625 4.1875 9.94687 4.10313C9.38125 3.88125 8.14688 3.89062 7.35 3.9C7.22187 3.9 7.10313 3.90313 7 3.90313C6.89687 3.90313 6.775 3.90313 6.64375 3.9C5.84688 3.89062 4.61875 3.87813 4.05312 4.10313C3.8375 4.1875 3.64375 4.31563 3.47813 4.47813C3.3125 4.64062 3.1875 4.8375 3.10313 5.05312C2.88125 5.61875 2.89375 6.85625 2.9 7.65312C2.9 7.78125 2.90313 7.9 2.90313 8C2.90313 8.1 2.90313 8.21875 2.9 8.34688C2.89375 9.14375 2.88125 10.3812 3.10313 10.9469C3.1875 11.1625 3.31563 11.3563 3.47813 11.5219C3.64062 11.6875 3.8375 11.8125 4.05312 11.8969C4.61875 12.1188 5.85313 12.1094 6.65 12.1C6.77813 12.1 6.89687 12.0969 7 12.0969C7.10313 12.0969 7.225 12.0969 7.35625 12.1C8.15312 12.1094 9.38125 12.1219 9.94687 11.8969C10.1625 11.8125 10.3563 11.6844 10.5219 11.5219C10.6875 11.3594 10.8125 11.1625 10.8969 10.9469C11.1219 10.3844 11.1094 9.15312 11.1 8.35312C11.1 8.22187 11.0969 8.1 11.0969 7.99687C11.0969 7.89375 11.0969 7.775 11.1 7.64062C11.1094 6.84375 11.1219 5.6125 10.8969 5.04688C10.8125 4.83125 10.6844 4.6375 10.5219 4.47188V4.47813ZM8.425 5.86875C8.99024 6.24668 9.3822 6.83368 9.51465 7.50061C9.6471 8.16753 9.50918 8.85976 9.13125 9.425C8.94412 9.70488 8.70369 9.94516 8.42369 10.1321C8.1437 10.3191 7.82962 10.4491 7.49939 10.5146C6.83247 10.6471 6.14024 10.5092 5.575 10.1313C5.00976 9.75373 4.61763 9.16713 4.48489 8.5005C4.35215 7.83387 4.48967 7.14181 4.86719 6.57656C5.24471 6.01132 5.83131 5.6192 6.49794 5.48646C7.16457 5.35372 7.85663 5.49123 8.42188 5.86875H8.425ZM9.3375 5.82812C9.24062 5.7625 9.1625 5.66875 9.11563 5.55937C9.06875 5.45 9.05937 5.33125 9.08125 5.2125C9.10313 5.09375 9.1625 4.99062 9.24375 4.90625C9.325 4.82188 9.43437 4.76562 9.55 4.74375C9.66563 4.72188 9.7875 4.73125 9.89688 4.77812C10.0063 4.825 10.1 4.9 10.1656 4.99687C10.2312 5.09375 10.2656 5.20937 10.2656 5.32812C10.2656 5.40625 10.25 5.48438 10.2219 5.55625C10.1938 5.62813 10.1469 5.69375 10.0938 5.75C10.0406 5.80625 9.97187 5.85 9.9 5.88125C9.82812 5.9125 9.75 5.92812 9.67188 5.92812C9.55313 5.92812 9.4375 5.89375 9.34062 5.82812H9.3375ZM14 3C14 1.89688 13.1031 1 12 1H2C0.896875 1 0 1.89688 0 3V13C0 14.1031 0.896875 15 2 15H12C13.1031 15 14 14.1031 14 13V3ZM11.1562 12.1562C10.5719 12.7406 9.8625 12.925 9.0625 12.9656C8.2375 13.0125 5.7625 13.0125 4.9375 12.9656C4.1375 12.925 3.42812 12.7406 2.84375 12.1562C2.25938 11.5719 2.075 10.8625 2.0375 10.0625C1.99062 9.2375 1.99062 6.7625 2.0375 5.9375C2.07812 5.1375 2.25938 4.42812 2.84375 3.84375C3.42812 3.25938 4.14062 3.075 4.9375 3.0375C5.7625 2.99062 8.2375 2.99062 9.0625 3.0375C9.8625 3.07812 10.5719 3.25938 11.1562 3.84375C11.7406 4.42812 11.925 5.1375 11.9625 5.9375C12.0094 6.75938 12.0094 9.23125 11.9625 10.0594C11.9219 10.8594 11.7406 11.5687 11.1562 12.1531V12.1562Z" fill="#4B32BF"/>
</svg>
