<svg width="10" height="11" viewBox="0 0 10 11" fill="none" xmlns="http://www.w3.org/2000/svg">
<g clip-path="url(#clip0_2_197)">
<path d="M4.16666 5.91667C4.3456 6.15589 4.57389 6.35383 4.83605 6.49706C5.09822 6.6403 5.38812 6.72547 5.68609 6.74681C5.98407 6.76815 6.28315 6.72516 6.56305 6.62075C6.84295 6.51634 7.09712 6.35295 7.30832 6.14167L8.55832 4.89167C8.93782 4.49875 9.14781 3.9725 9.14306 3.42625C9.13831 2.88001 8.91921 2.35748 8.53295 1.97122C8.14668 1.58495 7.62415 1.36585 7.07791 1.3611C6.53167 1.35635 6.00541 1.56634 5.61249 1.94584L4.89582 2.65834" stroke="#4B32BF" stroke-linecap="round" stroke-linejoin="round"/>
<path d="M5.83332 5.08333C5.65439 4.84411 5.42609 4.64617 5.16393 4.50293C4.90176 4.3597 4.61186 4.27453 4.31389 4.25319C4.01591 4.23185 3.71683 4.27484 3.43693 4.37925C3.15703 4.48366 2.90286 4.64705 2.69166 4.85833L1.44166 6.10833C1.06216 6.50125 0.852174 7.0275 0.856921 7.57375C0.861668 8.11999 1.08077 8.64252 1.46704 9.02878C1.8533 9.41505 2.37583 9.63415 2.92207 9.6389C3.46832 9.64364 3.99457 9.43366 4.38749 9.05416L5.09999 8.34166" stroke="#4B32BF" stroke-linecap="round" stroke-linejoin="round"/>
</g>
<defs>
<clipPath id="clip0_2_197">
<rect width="10" height="10" fill="white" transform="translate(0 0.5)"/>
</clipPath>
</defs>
</svg>
